<svg width="108" height="102" viewBox="0 0 108 102" fill="none" xmlns="http://www.w3.org/2000/svg">
	<path fill-rule="evenodd" clip-rule="evenodd" d="M53.4914 0C81.5818 0 104.39 22.8084 104.39 50.8987C104.39 78.989 81.5818 101.797 53.4914 101.797C25.4011 101.797 2.59277 78.989 2.59277 50.8987C2.59277 22.8084 25.4011 0 53.4914 0Z" fill="#EFF5FF"/>
	<mask id="mask0" mask-type="alpha" maskUnits="userSpaceOnUse" x="2" y="0" width="103" height="102">
		<path fill-rule="evenodd" clip-rule="evenodd" d="M53.4914 0C81.5818 0 104.39 22.8084 104.39 50.8987C104.39 78.989 81.5818 101.797 53.4914 101.797C25.4011 101.797 2.59277 78.989 2.59277 50.8987C2.59277 22.8084 25.4011 0 53.4914 0Z" fill="#EFF5FF"/>
	</mask>
	<g mask="url(#mask0)"> </g>
	<g clip-path="url(#clip0)">
		<g opacity="0.5">
			<path opacity="0.5" d="M54.4283 43.4854C68.5386 43.4854 79.9772 41.6322 79.9772 39.3462C79.9772 37.0602 68.5386 35.207 54.4283 35.207C40.318 35.207 28.8794 37.0602 28.8794 39.3462C28.8794 41.6322 40.318 43.4854 54.4283 43.4854Z" fill="#6599FF"/>
		</g>
		<path d="M69.2244 28.8312H71.413C72.2218 28.8312 72.8879 29.4973 72.8879 30.3061V34.9211V39.536C72.8879 40.3448 72.2218 41.0109 71.413 41.0109H69.2244C68.4156 41.0109 67.7495 40.3448 67.7495 39.536V34.9211V30.3061C67.7495 29.4973 68.4156 28.8312 69.2244 28.8312Z" fill="url(#pb_paint0_linear)"/>
		<path d="M70.3188 40.5355L72.888 39.0131V38.4421L70.3188 39.9646V40.5355Z" fill="#424242"/>
		<path d="M70.3188 30.4968L72.4598 29.2598C72.317 29.1171 72.1743 29.0219 72.0316 28.9744L70.3664 29.9735V30.4968H70.3188Z" fill="#424242"/>
		<path d="M70.3188 39.1083L72.888 37.5858V37.0149L70.3188 38.5374V39.1083Z" fill="#424242"/>
		<path d="M71.4131 41.0114C72.0791 41.0114 72.65 40.5356 72.8404 39.9171L70.9849 41.0114H71.4131Z" fill="#424242"/>
		<path d="M70.3188 37.681L72.888 36.1586V35.5876L70.3188 37.1101V37.681Z" fill="#424242"/>
		<path d="M70.3188 33.3515L72.888 31.829V31.2581L70.3188 32.7805V33.3515Z" fill="#424242"/>
		<path d="M72.8404 29.8783L70.3188 31.3532V31.9241L72.888 30.4016V30.3065C72.888 30.1638 72.8404 30.021 72.8404 29.8783Z" fill="#424242"/>
		<path d="M70.3188 36.2537L72.888 34.7312V34.1603L70.3188 35.6828V36.2537Z" fill="#424242"/>
		<path d="M70.3188 34.7787L72.888 33.2563V32.7329L70.3188 34.2554V34.7787Z" fill="#424242"/>
		<path d="M70.3187 33.4942L67.7495 32.0193V32.5902L70.3187 34.0651V33.4942Z" fill="#424242"/>
		<path d="M70.3187 32.0194L67.7495 30.592V31.163L70.3187 32.6379V32.0194Z" fill="#424242"/>
		<path d="M70.3188 29.1647L69.7003 28.7841H69.2246C69.0818 28.7841 68.9391 28.8316 68.7964 28.8316L70.3188 29.688V29.1647Z" fill="#424242"/>
		<path d="M70.3187 30.592L68.0826 29.3074C67.9875 29.4501 67.8923 29.5928 67.8447 29.7356L70.3187 31.1629V30.592Z" fill="#424242"/>
		<path d="M70.3187 37.7762L67.7495 36.3013V36.8722L70.3187 38.3471V37.7762Z" fill="#424242"/>
		<path d="M67.7495 39.5365C67.7495 39.6317 67.7495 39.7268 67.7971 39.7744L69.9857 41.0114H70.3663V40.6784L67.7971 39.2035V39.5365H67.7495Z" fill="#424242"/>
		<path d="M70.3187 39.2034L67.7495 37.7761V38.347L70.3187 39.7744V39.2034Z" fill="#424242"/>
		<path d="M70.3187 34.9215L67.7495 33.4467V34.0176L70.3187 35.4925V34.9215Z" fill="#424242"/>
		<path d="M70.3187 36.3488L67.7495 34.8739V34.9215V35.4448L70.3187 36.9197V36.3488Z" fill="#424242"/>
		<path d="M37.5857 28.7366H39.7743C40.5831 28.7366 41.2492 29.4027 41.2492 30.2115V34.8264V39.4414C41.2492 40.2502 40.5831 40.9163 39.7743 40.9163H37.5857C36.7769 40.9163 36.1108 40.2502 36.1108 39.4414V34.8264V30.2115C36.1108 29.4027 36.7769 28.7366 37.5857 28.7366Z" fill="url(#pb_paint1_linear)"/>
		<path d="M38.6802 40.4406L41.2969 38.9181V38.3948L38.6802 39.9172V40.4406Z" fill="#424242"/>
		<path d="M38.6802 30.4017L40.8212 29.1647C40.6784 29.022 40.5357 28.9268 40.393 28.8793L38.7278 29.8784L38.6802 30.4017Z" fill="#424242"/>
		<path d="M38.6802 39.0132L41.2969 37.4907V36.9198L38.6802 38.4423V39.0132Z" fill="#424242"/>
		<path d="M39.7742 40.9163C40.4402 40.9163 41.0112 40.4405 41.2015 39.822L39.3936 40.9163H39.7742Z" fill="#424242"/>
		<path d="M38.6802 37.5859L41.2969 36.0635V35.4926L38.6802 37.015V37.5859Z" fill="#424242"/>
		<path d="M38.6802 33.304L41.2969 31.7815V31.2106L38.6802 32.733V33.304Z" fill="#424242"/>
		<path d="M41.2017 29.7832L38.6802 31.2581V31.829L41.2493 30.3066V30.2114C41.2969 30.0687 41.2493 29.9259 41.2017 29.7832Z" fill="#424242"/>
		<path d="M38.6802 36.1586L41.2969 34.6361V34.0652L38.6802 35.5876V36.1586Z" fill="#424242"/>
		<path d="M38.6802 34.7313L41.2969 33.2089V32.6379L38.6802 34.1604V34.7313Z" fill="#424242"/>
		<path d="M38.7276 33.3991L36.1108 31.9242V32.4951L38.7276 33.97V33.3991Z" fill="#424242"/>
		<path d="M38.7276 31.9718L36.1108 30.4969V31.0679L38.7276 32.5428V31.9718Z" fill="#424242"/>
		<path d="M38.7278 29.0696L38.0617 28.7366H37.5859C37.4432 28.7366 37.3004 28.7841 37.1577 28.7841L38.6802 29.6405V29.0696H38.7278Z" fill="#424242"/>
		<path d="M38.7274 30.5445L36.4913 29.2599C36.3961 29.4026 36.301 29.5453 36.2534 29.6881L38.7274 31.1154V30.5445Z" fill="#424242"/>
		<path d="M38.7276 37.7287L36.1108 36.2538V36.8247L38.7276 38.2996V37.7287Z" fill="#424242"/>
		<path d="M36.1108 39.4414C36.1108 39.5366 36.1108 39.6318 36.1584 39.6793L38.347 40.9163H38.7276V40.5833L36.1584 39.1084L36.1108 39.4414Z" fill="#424242"/>
		<path d="M38.7276 39.1559L36.1108 37.681V38.252L38.7276 39.7268V39.1559Z" fill="#424242"/>
		<path d="M38.7276 34.8265L36.1108 33.3516V33.9225L38.7276 35.3974V34.8265Z" fill="#424242"/>
		<path d="M38.7276 36.2537L36.1108 34.8264V35.3973L38.7276 36.8247V36.2537Z" fill="#424242"/>
		<path d="M65.5611 15.3198C65.5611 16.414 60.6131 17.318 54.5232 17.318C48.4334 17.318 43.4854 16.414 43.4854 15.3198C43.4854 14.2255 48.4334 13.3215 54.5232 13.3215C60.6131 13.3215 65.5611 14.2255 65.5611 15.3198Z" fill="#FF1709"/>
		<path d="M72.0317 23.8837C71.7463 23.4555 69.8432 21.8378 69.6053 21.3621C69.6053 21.3621 67.7974 14.4634 63.7057 14.4634C62.8493 14.4634 45.8643 14.4634 45.2934 14.4634C41.2018 14.4634 39.3938 21.3621 39.3938 21.3621C39.156 21.8378 37.2529 23.4555 36.9674 23.8837C35.8731 25.5489 35.9207 28.6414 35.9207 28.6414V32.3048C35.9207 32.8282 36.3489 33.2564 36.8723 33.2564L54.4758 33.1612L72.0793 33.2564C72.6027 33.2564 73.0308 32.8282 73.0308 32.3048V28.6414C73.0308 28.6414 73.126 25.5489 72.0317 23.8837Z" fill="#FF1709"/>
		<path d="M65.6561 30.3541L62.0402 31.9717H46.768L43.1521 30.3541H35.9204C35.9204 31.3532 35.968 34.2079 35.968 34.2079C35.968 35.4449 37.3477 36.444 39.0605 36.444H70.0332C71.746 36.444 73.1257 35.4449 73.1257 34.2079C73.1257 32.9709 73.1257 31.3057 73.1257 30.3541C73.1257 30.3541 65.6561 30.3541 65.6561 30.3541Z" fill="#FF1709"/>
		<path d="M69.4149 22.5039C69.4149 22.5039 69.1294 21.029 70.9373 21.3621C72.7453 21.7427 73.5541 22.6467 73.2686 23.3127C72.9831 23.9788 69.4149 23.6934 69.4149 23.6934L68.3682 22.5515L69.4149 22.5039Z" fill="#FF1709"/>
		<path d="M39.4889 22.5039C39.4889 22.5039 39.7744 21.029 37.9664 21.3621C36.1585 21.7427 35.3497 22.6467 35.6352 23.3127C35.9206 23.9788 39.4889 23.6934 39.4889 23.6934L40.5356 22.5515L39.4889 22.5039Z" fill="#FF1709"/>
		<path d="M45.0076 33.1611H35.9204C35.9204 33.7796 35.9204 34.2554 35.9204 34.2554C35.9204 34.636 36.0631 34.9691 36.2534 35.2545H45.9116L45.0076 33.1611Z" fill="#B7100B"/>
		<path d="M73.0782 33.1611H63.9434L62.8491 35.2545H72.7452C72.9355 34.9691 73.0782 34.5884 73.0782 34.2554C73.0782 33.8748 73.0782 33.4942 73.0782 33.1611Z" fill="#B7100B"/>
		<path d="M62.8493 35.2546H45.9595L46.7683 31.9718H62.0405L62.8493 35.2546Z" fill="#EBE2D8"/>
		<path d="M47.244 31.9718H46.9585V33.5894H47.244V31.9718Z" fill="#B7100B"/>
		<path d="M48.1956 31.9718H47.9102V33.5894H48.1956V31.9718Z" fill="#B7100B"/>
		<path d="M49.0994 31.9718H48.814V33.5894H49.0994V31.9718Z" fill="#B7100B"/>
		<path d="M50.0033 31.9718H49.7178V33.5894H50.0033V31.9718Z" fill="#B7100B"/>
		<path d="M50.9075 31.9718H50.6221V33.5894H50.9075V31.9718Z" fill="#B7100B"/>
		<path d="M51.8113 31.9718H51.5259V33.5894H51.8113V31.9718Z" fill="#B7100B"/>
		<path d="M52.7152 31.9718H52.4297V33.5894H52.7152V31.9718Z" fill="#B7100B"/>
		<path d="M53.6194 31.9718H53.334V33.5894H53.6194V31.9718Z" fill="#B7100B"/>
		<path d="M54.5232 31.9718H54.2378V33.5894H54.5232V31.9718Z" fill="#B7100B"/>
		<path d="M55.4271 31.9718H55.1416V33.5894H55.4271V31.9718Z" fill="#B7100B"/>
		<path d="M56.3314 31.9718H56.0459V33.5894H56.3314V31.9718Z" fill="#B7100B"/>
		<path d="M57.2351 31.9718H56.9497V33.5894H57.2351V31.9718Z" fill="#B7100B"/>
		<path d="M58.139 31.9718H57.8535V33.5894H58.139V31.9718Z" fill="#B7100B"/>
		<path d="M59.0907 31.9718H58.8052V33.5894H59.0907V31.9718Z" fill="#B7100B"/>
		<path d="M59.9944 31.9718H59.709V33.5894H59.9944V31.9718Z" fill="#B7100B"/>
		<path d="M60.8987 31.9718H60.6133V33.5894H60.8987V31.9718Z" fill="#B7100B"/>
		<path d="M61.8025 31.9718H61.5171V33.5894H61.8025V31.9718Z" fill="#B7100B"/>
		<path d="M72.4601 31.9718H69.9385V35.2546H72.4601V31.9718Z" fill="#B7100B"/>
		<path d="M71.9366 32.7806H71.2705V34.541H71.9366V32.7806Z" fill="white"/>
		<path d="M71.9366 32.7806H71.2705V33.304H71.9366V32.7806Z" fill="#FABBAC"/>
		<path d="M39.0133 31.9718H36.4917V35.2546H39.0133V31.9718Z" fill="#B7100B"/>
		<path d="M37.7286 32.7806H37.0625V34.541H37.7286V32.7806Z" fill="white"/>
		<path d="M37.7286 32.7806H37.0625V33.304H37.7286V32.7806Z" fill="#FABBAC"/>
		<path d="M65.0852 15.415C64.5143 14.7013 60.3275 14.1304 54.4279 14.1304C48.5284 14.1304 44.3416 14.7013 43.7706 15.415C43.7706 15.415 40.1548 19.126 40.1548 23.0749C41.8676 23.0749 48.1953 22.6942 54.4279 22.6942C60.6605 22.6942 66.9883 23.0749 68.701 23.0749C68.7486 19.1735 65.0852 15.415 65.0852 15.415Z" fill="#303030"/>
		<path d="M41.487 22.7418L41.4395 22.266C41.8201 22.266 50.4791 21.7427 54.2377 22.266L54.1901 22.7418C50.4315 22.2185 41.5346 22.7418 41.487 22.7418Z" fill="#4F4F4F"/>
		<path d="M54.2852 22.0757H50.146V22.7418H54.2852V22.0757Z" fill="#4F4F4F"/>
		<path d="M54.9514 22.7418L54.9038 22.266C55.2368 22.266 63.3725 21.7427 67.1311 22.266L67.0836 22.7418C63.3725 22.2185 54.999 22.7418 54.9514 22.7418Z" fill="#4F4F4F"/>
		<path d="M67.1788 22.0757H63.0396V22.7418H67.1788V22.0757Z" fill="#4F4F4F"/>
		<path d="M41.6299 27.3093C41.9154 27.9753 42.1533 28.4987 42.3912 28.9269C42.8669 29.7833 42.5815 30.3542 41.4872 30.3542H36.7295C36.7295 30.3542 36.7771 25.9771 37.7286 25.4538C38.6802 24.9304 40.6308 24.8828 41.6299 27.3093Z" fill="url(#pb_paint2_linear)"/>
		<path d="M41.4874 30.0687C41.8681 30.0687 42.106 29.9735 42.2487 29.8308C42.3914 29.6881 42.3438 29.355 42.1535 29.022C41.8681 28.5462 41.6302 27.9753 41.3923 27.3568C40.6786 25.644 39.5844 25.4061 38.9659 25.4061C38.6328 25.4061 38.2522 25.5013 37.9667 25.644C37.491 25.9295 37.1579 28.0704 37.1104 30.0211L41.4874 30.0687Z" fill="white"/>
		<path d="M38.1568 26.4052C38.0141 26.6431 38.0616 27.3092 38.585 27.1665C39.1083 27.0713 39.4414 27.4995 39.6317 27.5947C39.822 27.7374 40.2026 27.3568 40.1075 26.8334C40.0599 26.3577 39.0608 24.7876 38.1568 26.4052Z" fill="white"/>
		<path d="M38.2522 26.4052C38.157 26.5955 38.2046 27.214 38.6804 27.1189C39.1561 27.0237 39.4892 27.4043 39.6319 27.5471C39.8222 27.6422 40.1553 27.3092 40.0601 26.8334C40.0125 26.3576 39.1086 24.9303 38.2522 26.4052Z" fill="#FCFBF9"/>
		<path d="M38.2995 26.4528C38.2043 26.6431 38.2519 27.214 38.6801 27.1189C39.1083 27.0237 39.3938 27.4043 39.5841 27.4995C39.7268 27.5946 40.0598 27.3092 40.0123 26.881C39.9171 26.4052 39.1083 25.073 38.2995 26.4528Z" fill="#F9F7F4"/>
		<path d="M38.3947 26.4528C38.2996 26.6431 38.3471 27.1665 38.7278 27.0713C39.156 26.9761 39.3938 27.3092 39.5366 27.4043C39.6793 27.4995 39.9648 27.214 39.9172 26.8334C39.8696 26.4528 39.1084 25.2158 38.3947 26.4528Z" fill="#F6F3EE"/>
		<path d="M38.4421 26.5003C38.3469 26.6431 38.3945 27.1188 38.7751 27.0713C39.1557 26.9761 39.3936 27.3091 39.5364 27.4043C39.6791 27.4995 39.917 27.214 39.8694 26.881C39.7742 26.4528 39.1082 25.3585 38.4421 26.5003Z" fill="#F3EFE9"/>
		<path d="M38.5374 26.5004C38.4423 26.6432 38.4899 27.0714 38.8229 26.9762C39.1559 26.9286 39.3462 27.1665 39.489 27.2617C39.6317 27.3568 39.8696 27.1189 39.7744 26.7859C39.7269 26.5004 39.1084 25.5013 38.5374 26.5004Z" fill="#F0EBE3"/>
		<path d="M38.5851 26.548C38.5375 26.6908 38.5375 27.0238 38.823 26.9762C39.1085 26.9286 39.2988 27.1665 39.3939 27.2141C39.4891 27.2617 39.727 27.0714 39.6794 26.7859C39.6318 26.5004 39.1085 25.6441 38.5851 26.548Z" fill="#EEE6DE"/>
		<path d="M38.6803 26.5479C38.6327 26.6431 38.6327 26.9761 38.9182 26.9285C39.1561 26.8809 39.3464 27.0712 39.4416 27.1664C39.5367 27.214 39.727 27.0712 39.6794 26.7858C39.5843 26.5479 39.1085 25.7867 38.6803 26.5479Z" fill="#EBE2D8"/>
		<path d="M38.7275 26.5956C38.6799 26.6907 38.6799 26.9762 38.9178 26.9286C39.1557 26.8811 39.2508 27.0714 39.346 27.1189C39.4412 27.1665 39.5839 27.0238 39.5363 26.7859C39.4887 26.5956 39.1081 25.9295 38.7275 26.5956Z" fill="#E8DED3"/>
		<path d="M38.7755 26.6432C38.7279 26.7383 38.7279 26.9286 38.9182 26.9286C39.1085 26.8811 39.2037 27.0238 39.2512 27.0714C39.2988 27.1189 39.4415 26.9762 39.394 26.8335C39.4415 26.5956 39.1085 26.0722 38.7755 26.6432Z" fill="#E5DACD"/>
		<path d="M38.8704 26.6431C38.8228 26.6907 38.8704 26.881 39.0131 26.8334C39.1558 26.7859 39.251 26.9286 39.2986 26.9286C39.3462 26.9762 39.4413 26.881 39.4413 26.7383C39.3462 26.6431 39.1083 26.215 38.8704 26.6431Z" fill="#E2D6C8"/>
		<path d="M38.9181 26.6907C38.8705 26.7383 38.9181 26.881 39.0132 26.8335C39.1084 26.8335 39.156 26.881 39.2035 26.9286C39.2511 26.9286 39.2987 26.881 39.2987 26.7859C39.2987 26.6907 39.1084 26.3577 38.9181 26.6907Z" fill="#DFD2C2"/>
		<path d="M38.4897 28.7366C38.4897 29.4503 39.2034 30.0212 40.0598 30.0212C40.9162 30.0212 41.6298 29.4503 41.6298 28.7366C41.6298 28.023 40.9162 27.452 40.0598 27.452C39.2034 27.452 38.4897 28.023 38.4897 28.7366Z" fill="white"/>
		<path d="M38.584 28.7362C38.584 29.4022 39.2501 29.9732 40.0589 29.9732C40.8677 29.9732 41.5338 29.4022 41.5338 28.7362C41.5338 28.0701 40.8677 27.4991 40.0589 27.4991C39.2501 27.4991 38.584 28.0701 38.584 28.7362Z" fill="#FCFBF9"/>
		<path d="M38.6802 28.7366C38.6802 29.3551 39.2987 29.8784 40.0599 29.8784C40.8211 29.8784 41.4396 29.3551 41.4396 28.7366C41.4396 28.1181 40.8211 27.5947 40.0599 27.5947C39.2987 27.5947 38.6802 28.0705 38.6802 28.7366Z" fill="#F9F7F4"/>
		<path d="M38.7754 28.7366C38.7754 29.3551 39.3463 29.8309 40.06 29.8309C40.7736 29.8309 41.3446 29.3551 41.3446 28.7366C41.3446 28.1181 40.7736 27.6423 40.06 27.6423C39.3463 27.6423 38.7754 28.1181 38.7754 28.7366Z" fill="#F6F3EE"/>
		<path d="M38.8228 28.7365C38.8228 29.3075 39.3461 29.7357 40.0122 29.7357C40.6783 29.7357 41.2016 29.3075 41.2016 28.7365C41.2016 28.1656 40.6783 27.7374 40.0122 27.7374C39.3937 27.7374 38.8228 28.1656 38.8228 28.7365Z" fill="#F3EFE9"/>
		<path d="M38.918 28.7366C38.918 29.2599 39.4413 29.6881 40.0598 29.6881C40.6783 29.6881 41.2017 29.2599 41.2017 28.7366C41.2017 28.2132 40.6783 27.785 40.0598 27.785C39.4413 27.785 38.918 28.2132 38.918 28.7366Z" fill="#F0EBE3"/>
		<path d="M39.0132 28.7366C39.0132 29.2124 39.489 29.593 40.0599 29.593C40.6308 29.593 41.1066 29.2124 41.1066 28.7366C41.1066 28.2609 40.6308 27.8802 40.0599 27.8802C39.489 27.8802 39.0132 28.2609 39.0132 28.7366Z" fill="#EEE6DE"/>
		<path d="M39.1084 28.7367C39.1084 29.1649 39.5366 29.5455 40.0599 29.5455C40.5833 29.5455 41.0115 29.2124 41.0115 28.7367C41.0115 28.3085 40.5833 27.9279 40.0599 27.9279C39.5366 27.9279 39.1084 28.3085 39.1084 28.7367Z" fill="#EBE2D8"/>
		<path d="M39.2036 28.7366C39.2036 29.1172 39.5842 29.4503 40.06 29.4503C40.5358 29.4503 40.9164 29.1172 40.9164 28.7366C40.9164 28.356 40.5358 28.0229 40.06 28.0229C39.5842 28.0229 39.2036 28.356 39.2036 28.7366Z" fill="#E8DED3"/>
		<path d="M39.2983 28.7366C39.2983 29.0696 39.6314 29.3551 40.0596 29.3551C40.4878 29.3551 40.8208 29.0696 40.8208 28.7366C40.8208 28.4036 40.4878 28.1181 40.0596 28.1181C39.6314 28.0705 39.2983 28.356 39.2983 28.7366Z" fill="#E5DACD"/>
		<path d="M39.3936 28.7366C39.3936 29.0696 39.679 29.3075 40.0596 29.3075C40.4403 29.3075 40.7257 29.0696 40.7257 28.7366C40.7257 28.4035 40.4403 28.1656 40.0596 28.1656C39.679 28.1656 39.3936 28.4035 39.3936 28.7366Z" fill="#E2D6C8"/>
		<path d="M39.4414 28.7366C39.4414 29.0221 39.7269 29.2124 40.0123 29.2124C40.3454 29.2124 40.5833 28.9745 40.5833 28.7366C40.5833 28.4512 40.2978 28.2609 40.0123 28.2609C39.7269 28.2609 39.4414 28.4512 39.4414 28.7366Z" fill="#DFD2C2"/>
		<path d="M38.1085 28.4035C38.1085 28.3083 37.6327 27.6898 37.49 28.4035C37.3473 29.1171 37.6803 29.9259 38.0133 29.7356C38.2512 29.5929 38.1561 28.6889 38.1085 28.4035Z" fill="#FAD2AC"/>
		<path d="M37.8715 28.689C37.8239 28.5939 37.5385 27.8802 37.3957 28.6414C37.253 29.3551 37.6336 29.926 37.9191 29.7357C38.2045 29.593 37.9191 29.022 37.8715 28.689Z" fill="#FABBAC"/>
		<path d="M67.4169 27.3093C67.1314 27.9753 66.8936 28.4987 66.6557 28.9269C66.1799 29.7833 66.4654 30.3542 67.5596 30.3542H72.3173C72.3173 30.3542 72.2698 25.9771 71.3182 25.4538C70.3667 24.9304 68.3684 24.8828 67.4169 27.3093Z" fill="url(#pb_paint3_linear)"/>
		<path d="M67.5596 30.0687C67.1789 30.0687 66.9411 29.9735 66.7983 29.8308C66.6556 29.6881 66.7032 29.355 66.8935 29.022C67.1789 28.5462 67.4168 27.9753 67.6547 27.3568C68.3684 25.644 69.4626 25.4061 70.0811 25.4061C70.4142 25.4061 70.7948 25.5013 71.0802 25.644C71.556 25.9295 71.889 28.0704 71.9366 30.0211L67.5596 30.0687Z" fill="white"/>
		<path d="M70.89 26.4052C71.0327 26.6431 70.9851 27.3092 70.4618 27.1665C69.9384 27.0713 69.6054 27.4995 69.4151 27.5947C69.2248 27.7374 68.8442 27.3568 68.9393 26.8334C68.9869 26.3577 69.9384 24.7876 70.89 26.4052Z" fill="white"/>
		<path d="M70.7944 26.4046C70.8896 26.5949 70.842 27.2134 70.3662 27.1183C69.8904 27.0231 69.5574 27.4037 69.4147 27.5464C69.2244 27.6416 68.8913 27.3086 68.9865 26.8328C69.034 26.357 69.938 24.9297 70.7944 26.4046Z" fill="#FCFBF9"/>
		<path d="M70.7471 26.4528C70.8423 26.6431 70.7947 27.214 70.3665 27.1189C69.9383 27.0237 69.6529 27.4043 69.4626 27.4995C69.3199 27.5946 68.9868 27.3092 69.0344 26.881C69.082 26.4052 69.9383 25.073 70.7471 26.4528Z" fill="#F9F7F4"/>
		<path d="M70.6523 26.4528C70.7474 26.6431 70.6999 27.1665 70.3192 27.0713C69.891 26.9761 69.6532 27.3092 69.5104 27.4043C69.3677 27.4995 69.0822 27.214 69.1298 26.8334C69.1774 26.4528 69.9386 25.2158 70.6523 26.4528Z" fill="#F6F3EE"/>
		<path d="M70.6044 26.5003C70.6996 26.6431 70.652 27.1188 70.2714 27.0713C69.8907 26.9761 69.6529 27.3091 69.5101 27.4043C69.3674 27.4995 69.1295 27.214 69.1771 26.881C69.2247 26.4528 69.9383 25.3585 70.6044 26.5003Z" fill="#F3EFE9"/>
		<path d="M70.5093 26.5004C70.6045 26.6432 70.5569 27.0714 70.2239 26.9762C69.8908 26.9286 69.7005 27.1665 69.5578 27.2617C69.4151 27.3568 69.1772 27.1189 69.2723 26.7859C69.3199 26.5004 69.9384 25.5013 70.5093 26.5004Z" fill="#F0EBE3"/>
		<path d="M70.4618 26.548C70.5094 26.6908 70.5094 27.0238 70.224 26.9762C69.9385 26.9286 69.7482 27.1665 69.653 27.2141C69.5579 27.2617 69.32 27.0714 69.3675 26.7859C69.3675 26.5004 69.9385 25.6441 70.4618 26.548Z" fill="#EEE6DE"/>
		<path d="M70.3665 26.5479C70.4141 26.6431 70.4141 26.9761 70.1286 26.9285C69.8907 26.8809 69.7004 27.0712 69.6053 27.1664C69.5101 27.214 69.3198 27.0712 69.3674 26.7858C69.4625 26.5479 69.9383 25.7867 70.3665 26.5479Z" fill="#EBE2D8"/>
		<path d="M70.3192 26.5956C70.3668 26.6907 70.3668 26.9762 70.1289 26.9286C69.891 26.8811 69.7959 27.0714 69.7007 27.1189C69.6056 27.1665 69.4629 27.0238 69.5104 26.7859C69.5104 26.5956 69.9386 25.9295 70.3192 26.5956Z" fill="#E8DED3"/>
		<path d="M70.2238 26.6432C70.2714 26.7383 70.2714 26.9286 70.0811 26.9286C69.8907 26.8811 69.7956 27.0238 69.748 27.0714C69.7004 27.1189 69.5577 26.9762 69.6053 26.8335C69.6053 26.5956 69.9383 26.0722 70.2238 26.6432Z" fill="#E5DACD"/>
		<path d="M70.1764 26.6431C70.224 26.6907 70.1764 26.881 70.0337 26.8334C69.8909 26.7859 69.7958 26.9286 69.7482 26.9286C69.7006 26.9762 69.6055 26.881 69.6055 26.7383C69.653 26.6431 69.9385 26.215 70.1764 26.6431Z" fill="#E2D6C8"/>
		<path d="M70.0813 26.6907C70.1288 26.7383 70.0813 26.881 69.9861 26.8335C69.891 26.8335 69.8434 26.881 69.7958 26.9286C69.7483 26.9286 69.7007 26.881 69.7007 26.7859C69.7483 26.6907 69.9386 26.3577 70.0813 26.6907Z" fill="#DFD2C2"/>
		<path d="M70.5571 28.7366C70.5571 29.4503 69.8434 30.0212 68.987 30.0212C68.1307 30.0212 67.417 29.4503 67.417 28.7366C67.417 28.023 68.1307 27.452 68.987 27.452C69.8434 27.452 70.5571 28.023 70.5571 28.7366Z" fill="white"/>
		<path d="M70.461 28.7362C70.461 29.4022 69.7949 29.9732 68.9861 29.9732C68.1773 29.9732 67.5112 29.4022 67.5112 28.7362C67.5112 28.0701 68.1773 27.4991 68.9861 27.4991C69.7949 27.4991 70.461 28.0701 70.461 28.7362Z" fill="#FCFBF9"/>
		<path d="M70.3669 28.7366C70.3669 29.3551 69.7484 29.8784 68.9871 29.8784C68.2259 29.8784 67.6074 29.3551 67.6074 28.7366C67.6074 28.1181 68.2259 27.5947 68.9871 27.5947C69.7484 27.5947 70.3669 28.0705 70.3669 28.7366Z" fill="#F9F7F4"/>
		<path d="M70.2718 28.7366C70.2718 29.3551 69.7009 29.8309 68.9872 29.8309C68.2736 29.8309 67.7026 29.3551 67.7026 28.7366C67.7026 28.1181 68.2736 27.6423 68.9872 27.6423C69.7009 27.6423 70.2718 28.1181 70.2718 28.7366Z" fill="#F6F3EE"/>
		<path d="M70.1767 28.7365C70.1767 29.3075 69.6534 29.7357 68.9873 29.7357C68.3212 29.7357 67.7979 29.3075 67.7979 28.7365C67.7979 28.1656 68.3212 27.7374 68.9873 27.7374C69.6534 27.7374 70.1767 28.1656 70.1767 28.7365Z" fill="#F3EFE9"/>
		<path d="M70.0815 28.7366C70.0815 29.2599 69.5582 29.6881 68.9397 29.6881C68.3212 29.6881 67.7979 29.2599 67.7979 28.7366C67.7979 28.2132 68.3212 27.785 68.9397 27.785C69.5582 27.785 70.0815 28.2132 70.0815 28.7366Z" fill="#F0EBE3"/>
		<path d="M70.0338 28.7366C70.0338 29.2124 69.558 29.593 68.9871 29.593C68.4162 29.593 67.9404 29.2124 67.9404 28.7366C67.9404 28.2609 68.4162 27.8802 68.9871 27.8802C69.558 27.8802 70.0338 28.2609 70.0338 28.7366Z" fill="#EEE6DE"/>
		<path d="M69.9387 28.7367C69.9387 29.1649 69.5105 29.5455 68.9872 29.5455C68.4638 29.5455 68.0356 29.2124 68.0356 28.7367C68.0356 28.3085 68.4638 27.9279 68.9872 27.9279C69.5105 27.9279 69.9387 28.3085 69.9387 28.7367Z" fill="#EBE2D8"/>
		<path d="M69.8437 28.7366C69.8437 29.1172 69.463 29.4503 68.9873 29.4503C68.5115 29.4503 68.1309 29.1172 68.1309 28.7366C68.1309 28.356 68.5115 28.0229 68.9873 28.0229C69.463 28.0229 69.8437 28.356 69.8437 28.7366Z" fill="#E8DED3"/>
		<path d="M69.7485 28.7366C69.7485 29.0696 69.4155 29.3551 68.9873 29.3551C68.5591 29.3551 68.2261 29.0696 68.2261 28.7366C68.2261 28.4036 68.5591 28.1181 68.9873 28.1181C69.4155 28.0705 69.7485 28.356 69.7485 28.7366Z" fill="#E5DACD"/>
		<path d="M69.653 28.7366C69.653 29.0696 69.3675 29.3075 68.9869 29.3075C68.6063 29.3075 68.3208 29.0696 68.3208 28.7366C68.3208 28.4035 68.6063 28.1656 68.9869 28.1656C69.3675 28.1656 69.653 28.4035 69.653 28.7366Z" fill="#E2D6C8"/>
		<path d="M69.5579 28.7366C69.5579 29.0221 69.2724 29.2124 68.9869 29.2124C68.6539 29.2124 68.416 28.9745 68.416 28.7366C68.416 28.4512 68.7015 28.2609 68.9869 28.2609C69.32 28.2609 69.5579 28.4512 69.5579 28.7366Z" fill="#DFD2C2"/>
		<path d="M70.9374 28.4035C70.9374 28.3083 71.4132 27.6898 71.5559 28.4035C71.6986 29.1171 71.3656 29.9259 71.0326 29.7356C70.7947 29.5929 70.8898 28.6889 70.9374 28.4035Z" fill="#FAD2AC"/>
		<path d="M71.1752 28.689C71.2228 28.5939 71.5082 27.8802 71.651 28.6414C71.7937 29.3551 71.4131 29.926 71.1276 29.7357C70.8422 29.593 71.1276 29.022 71.1752 28.689Z" fill="#FABBAC"/>
		<path d="M64.7524 15.7479C64.4194 15.3673 61.4696 14.6061 54.4282 14.6061C47.3868 14.6061 44.437 15.3197 44.1515 15.7003L44.1039 15.7479C44.1039 15.7479 43.7233 16.1285 43.2476 16.747L65.4185 16.5567C65.0379 16.081 64.7524 15.7479 64.7524 15.7479Z" fill="#474747"/>
		<path d="M43.295 16.7471C42.3434 17.9841 40.8685 20.2202 40.6782 22.5991C41.3443 22.5991 42.2958 22.5515 43.3901 22.5039C46.1496 22.4087 50.3364 22.2184 54.428 22.2184C58.5196 22.2184 62.7064 22.3612 65.4659 22.5039C66.6077 22.5515 67.5593 22.5991 68.1778 22.5991C67.9875 20.125 66.3699 17.7462 65.3707 16.5568L43.295 16.7471Z" fill="black"/>
		<path d="M45.0079 32.7805H39.0132V33.1136H45.0079V32.7805Z" fill="#F29391"/>
		<path d="M62.0403 31.9717H46.7681L47.1963 31.6387H61.6597L62.0403 31.9717Z" fill="#F29391"/>
		<path d="M69.9859 32.7805H63.9912V33.1136H69.9859V32.7805Z" fill="#F29391"/>
		<path d="M40.1548 23.0748C40.1548 23.0748 40.4402 24.1215 40.6306 27.3092C44.7698 29.8308 48.7662 30.6396 48.7662 30.6396L40.1548 23.0748Z" fill="url(#pb_paint4_linear)"/>
		<path d="M68.7488 23.0748C68.7488 23.0748 68.4633 24.1215 68.273 27.3092C65.2756 29.6881 60.2324 30.6872 60.2324 30.6872L68.7488 23.0748Z" fill="url(#pb_paint5_linear)"/>
		<mask id="mask1" mask-type="alpha" maskUnits="userSpaceOnUse" x="2" y="0" width="102" height="101">
			<path fill-rule="evenodd" clip-rule="evenodd" d="M53.0011 0C80.8336 0 103.433 22.5991 103.433 50.4317C103.433 78.2643 80.8336 100.863 53.0011 100.863C25.1685 100.863 2.56934 78.2643 2.56934 50.4317C2.56934 22.5991 25.1685 0 53.0011 0Z" fill="#EFF5FF"/>
		</mask>
		<g mask="url(#mask1)">
			<path d="M16.9829 60.579L28.591 55.307L33.863 66.9151L22.3033 72.1871L16.9829 60.579Z" fill="url(#pb_paint6_linear)"/>
			<path d="M28.3679 55.9007L17.6309 60.7983L22.5285 71.5354L33.2656 66.6378L28.3679 55.9007Z" fill="#69F0AE"/>
			<path d="M62.0681 72.0666L47.3267 78.7908L47.7883 79.8029L62.5298 73.0787L62.0681 72.0666Z" fill="#E0E0E0"/>
			<path d="M72.3783 69.1951L48.0439 80.295L48.5056 81.3071L72.84 70.2072L72.3783 69.1951Z" fill="#E0E0E0"/>
			<path d="M71.3492 71.5227L48.731 81.8398L49.1926 82.8519L71.8108 72.5348L71.3492 71.5227Z" fill="#E0E0E0"/>
			<path d="M22.6908 64.2067L25.4961 65.1257L26.3667 59.8053L27.721 60.1439L26.2216 66.7218L22.062 64.9322L22.6908 64.2067Z" fill="url(#pb_paint7_linear)"/>
			<path d="M23.0775 64.1582L25.4475 64.9321L26.2697 60.2888L27.4305 60.6274L26.1246 66.3347L22.4971 64.7386L23.0775 64.1582Z" fill="white"/>
			<path d="M81.8435 50.422L72.2184 54.1946C70.4289 54.0495 66.6079 53.5658 62.8352 51.7762C58.6273 49.7932 53.839 49.7932 49.7278 51.873C40.2962 52.1148 35.1209 50.9056 32.364 49.7448L33.0895 48.2455L23.3677 44.4245L-1.00928 33.5419V78.2814L7.50332 82.1024L12.0982 71.1231L22.1585 75.7663L24.0932 70.8812L30.6711 75.7663L31.1064 76.1532L30.4777 76.782C29.3169 78.0396 29.3169 79.9742 30.4777 81.2318C31.5901 82.3926 33.4281 82.441 34.6372 81.3285C34.6856 81.2802 34.734 81.2802 34.734 81.2318L34.3954 81.5704C33.2346 82.8279 33.2346 84.7626 34.3954 86.0201C35.5078 87.1809 37.3458 87.2293 38.555 86.1169C38.6033 86.0685 38.6517 86.0685 38.6517 86.0201L40.5864 83.9887L39.2321 85.3914C38.0713 86.6489 38.0713 88.5836 39.2321 89.8411C40.3445 91.0019 42.1825 91.0503 43.3917 89.9379C43.44 89.8895 43.4884 89.8895 43.4884 89.8411L45.4231 87.8581L44.6009 88.6803C43.7786 89.5509 43.7786 90.9052 44.6009 91.7758C45.3747 92.598 46.6806 92.6464 47.5029 91.8725C47.5029 91.8725 47.5512 91.8242 47.5996 91.7758L48.9055 90.4215C51.1304 92.0176 52.92 93.2268 53.7906 93.517C57.4181 94.7746 57.4181 92.2595 57.4181 92.2595C62.3032 94.7746 64.7215 89.7444 64.7215 89.7444C70.8158 92.2595 70.8158 85.9234 70.8158 85.9234C72.3635 86.9875 73.4276 86.5038 74.2015 85.5848C75.2656 84.3273 75.3623 82.5377 74.6368 81.1351L80.4408 75.7663L82.9559 80.8932L93.0163 76.25L97.6111 86.4071L104.334 83.4083V39.0073L81.8435 50.422Z" fill="url(#pb_paint8_linear)"/>
			<path d="M80.2474 73.88L69.655 83.3116L61.3843 67.9792L80.2474 63.2876V73.88Z" fill="#BE7C5E"/>
			<path d="M29.5587 49.1161C29.5587 49.1161 32.9444 53.8561 53.1134 52.6469L64.915 70.3492L72.7988 79.2488C74.0564 80.6514 74.1047 82.7796 72.8955 84.1822C72.17 85.0528 71.106 85.4881 69.6066 84.5208C69.6066 84.5208 69.6066 90.4216 63.7058 88.0516C63.7058 88.0516 61.3358 92.7916 56.6442 90.4216C56.6442 90.4216 56.6442 92.7915 53.1134 91.5824C49.5826 90.3732 30.7195 75.0408 30.7195 75.0408L22.4971 69.1401L29.5587 49.1161Z" fill="#FDA57D"/>
			<path d="M71.9768 55.0168C71.9768 55.0168 66.8982 55.0168 61.8681 52.7436C57.2732 50.6638 51.9528 50.954 47.7449 53.6625C44.3108 55.8874 41.3121 59.5633 41.3604 65.6576C41.3604 65.6576 45.9553 70.3975 50.792 60.9176H54.3228C54.3228 60.9176 57.7085 72.7192 67.2852 71.51C76.8619 70.3492 79.0867 69.14 79.0867 69.14L71.9768 55.0168Z" fill="#BE7C5E"/>
			<path d="M40.6834 77.8945L41.0703 78.2814C42.086 79.2971 42.086 80.99 41.0703 82.0057L38.3134 84.7626C37.2977 85.7783 35.6049 85.7783 34.5891 84.7626L34.2022 84.3757C33.1865 83.36 33.1865 81.6671 34.2022 80.6514L36.9591 77.8945C37.9748 76.8788 39.6193 76.8788 40.6834 77.8945Z" fill="#BE7C5E"/>
			<path d="M36.8621 73.4446L37.249 73.8316C38.2647 74.8473 38.2647 76.5401 37.249 77.5558L34.4921 80.3128C33.4764 81.3285 31.7836 81.3285 30.7679 80.3128L30.3809 79.9258C29.3652 78.9101 29.3652 77.2173 30.3809 76.2016L33.1378 73.4446C34.1535 72.4289 35.8464 72.4289 36.8621 73.4446Z" fill="#BE7C5E"/>
			<path d="M45.9547 80.8449L46.3417 81.2318C47.3574 82.2475 47.3574 83.9404 46.3417 84.9561L43.0043 88.2934C41.9886 89.3091 40.2958 89.3091 39.2801 88.2934L38.8931 87.9065C37.8774 86.8908 37.8774 85.1979 38.8931 84.1822L42.2305 80.8449C43.2462 79.8292 44.939 79.8292 45.9547 80.8449Z" fill="#BE7C5E"/>
			<path d="M48.8568 85.0528L49.0986 85.2946C49.8242 86.0201 49.8242 87.1809 49.0986 87.9064L47.0189 89.9862C46.2934 90.7117 45.1326 90.7117 44.4071 89.9862L44.1652 89.7444C43.4397 89.0189 43.4397 87.8581 44.1652 87.1326L46.245 85.0528C46.9705 84.3273 48.1313 84.3273 48.8568 85.0528Z" fill="#BE7C5E"/>
			<path d="M92.0007 76.25L81.4083 80.9416L70.8159 55.0169L80.2475 51.4861L92.0007 76.25Z" fill="white"/>
			<path d="M11.9048 70.3493L22.4972 75.0409L33.0895 49.1161L23.658 45.5853L11.9048 70.3493Z" fill="white"/>
			<path d="M0.103027 34.9928L23.6578 45.5852L8.37379 80.9415L0.103027 77.4107V34.9928Z" fill="#333333"/>
			<path d="M103.802 40.8452L80.2476 51.486L95.5799 86.8423L103.802 83.3115V40.8452Z" fill="#4D8AF0"/>
		</g>
		<path d="M106.049 80.7859L107.477 77.0749C107.619 76.6467 107.524 76.2185 107.191 75.933L104.099 73.4115L103.48 69.5101C103.433 69.0819 103.052 68.7489 102.624 68.6537L98.7224 68.0352L96.2484 64.9427C95.9629 64.6097 95.4872 64.467 95.1065 64.6573L91.3955 66.0846L87.6845 64.6573C87.2563 64.5145 86.8281 64.6097 86.5427 64.9427L84.0211 68.0352L80.1197 68.6537C79.6916 68.7013 79.3585 69.0819 79.2634 69.5101L78.6449 73.4115L75.5523 75.933C75.2193 76.2185 75.0766 76.6943 75.2669 77.0749L76.6942 80.7859L75.2669 84.4969C75.1241 84.9251 75.2193 85.3533 75.5523 85.6388L78.6449 88.1128L79.2634 92.0141C79.3109 92.4423 79.6916 92.7753 80.1197 92.8705L84.0211 93.489L86.5427 96.5815C86.8281 96.9145 87.3039 97.0573 87.6845 96.867L91.3955 95.4397L95.1065 96.867C95.2017 96.9145 95.3444 96.9145 95.4872 96.9145C95.7726 96.9145 96.0581 96.7718 96.296 96.5339L98.77 93.4414L102.671 92.8229C103.1 92.7753 103.433 92.3947 103.528 91.9665L104.146 88.0652L107.239 85.5912C107.572 85.3057 107.714 84.83 107.524 84.4493L106.049 80.7859Z" fill="#F9A634" stroke="#EFF5FF" stroke-width="2" stroke-miterlimit="10"/>
		<path d="M92.9333 79.0137C93.1293 79.0137 93.2879 79.0603 93.4093 79.1537C93.5306 79.247 93.5773 79.401 93.5493 79.6157C93.5399 79.793 93.4559 79.933 93.2973 80.0357C93.1386 80.1383 92.9566 80.1897 92.7513 80.1897H91.8133L91.4773 82.1777H92.3733C92.5879 82.1777 92.7466 82.229 92.8493 82.3317C92.9613 82.4343 93.0173 82.5697 93.0173 82.7377C93.0173 82.887 92.9426 83.027 92.7933 83.1577C92.6439 83.2883 92.4433 83.3537 92.1913 83.3537H91.1833L90.7213 86.0277C90.6839 86.233 90.5999 86.401 90.4693 86.5317C90.3479 86.6623 90.1799 86.7277 89.9653 86.7277C89.7599 86.7277 89.6059 86.653 89.5033 86.5037C89.4099 86.3543 89.3819 86.177 89.4193 85.9717L89.8533 83.3537H87.6973L87.2493 86.0277C87.2119 86.2237 87.1233 86.3917 86.9833 86.5317C86.8526 86.6623 86.6893 86.7277 86.4933 86.7277C86.2879 86.7277 86.1339 86.667 86.0313 86.5457C85.9286 86.415 85.8959 86.2237 85.9333 85.9717L86.3813 83.3537H85.4153C85.2193 83.3537 85.0606 83.307 84.9393 83.2137C84.8273 83.111 84.7759 82.9803 84.7853 82.8217C84.8226 82.3923 85.0933 82.1777 85.5973 82.1777H86.6753L86.9973 80.1897H85.9613C85.7746 80.1897 85.6206 80.1477 85.4993 80.0637C85.3779 79.9797 85.3173 79.849 85.3173 79.6717C85.3173 79.4477 85.3919 79.2843 85.5413 79.1817C85.6906 79.0697 85.8913 79.0137 86.1433 79.0137H87.2773L87.7393 76.4797C87.7859 76.265 87.8699 76.097 87.9913 75.9757C88.1126 75.845 88.2806 75.7797 88.4953 75.7797C88.7006 75.7797 88.8546 75.8497 88.9573 75.9897C89.0693 76.1297 89.1019 76.3117 89.0553 76.5357L88.6073 79.0137H90.7633L91.2253 76.4797C91.2626 76.2837 91.3466 76.1203 91.4773 75.9897C91.6079 75.8497 91.7759 75.7797 91.9813 75.7797C92.1959 75.7797 92.3499 75.8497 92.4433 75.9897C92.5459 76.1297 92.5739 76.3117 92.5273 76.5357L92.0933 79.0137H92.9333ZM90.1473 82.1777L90.4833 80.1897H88.3273L88.0053 82.1777H90.1473ZM97.5644 86.7277C97.3778 86.7277 97.2144 86.6577 97.0744 86.5177C96.9344 86.3777 96.8644 86.2097 96.8644 86.0137V77.4737L95.8424 77.9077C95.6838 77.973 95.5344 78.0057 95.3944 78.0057C95.1891 78.0057 95.0164 77.9403 94.8764 77.8097C94.7458 77.679 94.6804 77.511 94.6804 77.3057C94.6804 77.1563 94.7178 77.021 94.7924 76.8997C94.8671 76.7783 94.9838 76.6897 95.1424 76.6337L97.3264 75.8497C97.3731 75.831 97.4198 75.817 97.4664 75.8077C97.5131 75.7983 97.5551 75.7937 97.5924 75.7937C97.8071 75.7937 97.9751 75.8637 98.0964 76.0037C98.2271 76.1343 98.2924 76.307 98.2924 76.5217V86.0137C98.2924 86.2097 98.2224 86.3777 98.0824 86.5177C97.9424 86.6577 97.7698 86.7277 97.5644 86.7277Z" fill="white"/>
	</g>
	<defs>
		<linearGradient id="pb_paint0_linear" x1="67.728" y1="34.921" x2="72.8849" y2="34.921" gradientUnits="userSpaceOnUse">
			<stop stop-color="#5F5A5E"/>
			<stop offset="0.411"/>
			<stop offset="0.531" stop-color="#060506"/>
			<stop offset="0.6864" stop-color="#161516"/>
			<stop offset="0.8604" stop-color="#302E30"/>
			<stop offset="1" stop-color="#4A484B"/>
		</linearGradient>
		<linearGradient id="pb_paint1_linear" x1="36.1237" y1="34.8264" x2="41.2806" y2="34.8264" gradientUnits="userSpaceOnUse">
			<stop stop-color="#5F5A5E"/>
			<stop offset="0.411"/>
			<stop offset="0.531" stop-color="#060506"/>
			<stop offset="0.6864" stop-color="#161516"/>
			<stop offset="0.8604" stop-color="#302E30"/>
			<stop offset="1" stop-color="#4A484B"/>
		</linearGradient>
		<linearGradient id="pb_paint2_linear" x1="39.6711" y1="25.2908" x2="39.6711" y2="30.4118" gradientUnits="userSpaceOnUse">
			<stop stop-color="white"/>
			<stop offset="0.0598377" stop-color="#EAEAEA"/>
			<stop offset="0.2445" stop-color="#B0B0B0"/>
			<stop offset="0.4229" stop-color="#808080"/>
			<stop offset="0.5908" stop-color="#5A5A5A"/>
			<stop offset="0.7455" stop-color="#3F3F3F"/>
			<stop offset="0.8825" stop-color="#2F2F2F"/>
			<stop offset="0.9873" stop-color="#292929"/>
		</linearGradient>
		<linearGradient id="pb_paint3_linear" x1="69.3757" y1="25.2908" x2="69.3757" y2="30.4118" gradientUnits="userSpaceOnUse">
			<stop stop-color="white"/>
			<stop offset="0.0598377" stop-color="#EAEAEA"/>
			<stop offset="0.2445" stop-color="#B0B0B0"/>
			<stop offset="0.4229" stop-color="#808080"/>
			<stop offset="0.5908" stop-color="#5A5A5A"/>
			<stop offset="0.7455" stop-color="#3F3F3F"/>
			<stop offset="0.8825" stop-color="#2F2F2F"/>
			<stop offset="0.9873" stop-color="#292929"/>
		</linearGradient>
		<linearGradient id="pb_paint4_linear" x1="46.8544" y1="26.8572" x2="40.8319" y2="26.8572" gradientUnits="userSpaceOnUse">
			<stop/>
			<stop offset="1" stop-color="#616161"/>
		</linearGradient>
		<linearGradient id="pb_paint5_linear" x1="62.1081" y1="26.881" x2="68.0641" y2="26.881" gradientUnits="userSpaceOnUse">
			<stop/>
			<stop offset="1" stop-color="#616161"/>
		</linearGradient>
		<linearGradient id="pb_paint6_linear" x1="28.0823" y1="69.5519" x2="22.7902" y2="57.95" gradientUnits="userSpaceOnUse">
			<stop stop-color="#808080" stop-opacity="0.25"/>
			<stop offset="0.54" stop-color="#808080" stop-opacity="0.12"/>
			<stop offset="1" stop-color="#808080" stop-opacity="0.1"/>
		</linearGradient>
		<linearGradient id="pb_paint7_linear" x1="26.7063" y1="66.5166" x2="24.1122" y2="60.8297" gradientUnits="userSpaceOnUse">
			<stop stop-color="#808080" stop-opacity="0.25"/>
			<stop offset="0.54" stop-color="#808080" stop-opacity="0.12"/>
			<stop offset="1" stop-color="#808080" stop-opacity="0.1"/>
		</linearGradient>
		<linearGradient id="pb_paint8_linear" x1="51.6624" y1="93.8691" x2="51.6624" y2="33.5419" gradientUnits="userSpaceOnUse">
			<stop stop-color="#808080" stop-opacity="0.25"/>
			<stop offset="0.54" stop-color="#808080" stop-opacity="0.12"/>
			<stop offset="1" stop-color="#808080" stop-opacity="0.1"/>
		</linearGradient>
		<clipPath id="clip0">
			<rect width="108" height="100.863" fill="white"/>
		</clipPath>
	</defs>
</svg>
